<svg width="51" height="12" viewBox="0 0 51 12" fill="none" xmlns="http://www.w3.org/2000/svg">
<path d="M17 3V4H16V3H17ZM15 4H16V5H17V6H16V8H15V6H14V5H15V4ZM20 5.992V5.008H19V5.992H20ZM19 8V7H18V5H19V4H21V5H22V6H20V7H21V8H19ZM24 6.992H26V5.008H24V6.992ZM24 5V4H27V8H24V7H23V5H24ZM30 3V4H31V5H30V7H29V5H28V4H29V3H30ZM31 8H30V7H31V8ZM35 7V4H36V8H33V7H35ZM33 4V7H32V4H33ZM40 4V5H39V4H40ZM38 6V8H37V4H38V5H39V6H38ZM43 5.992V5.008H42V5.992H43ZM42 8V7H41V5H42V4H44V5H45V6H43V7H44V8H42ZM47 4H50V5H48V6H46V5H47V4ZM46 7H48V6H50V7H49V8H46V7Z" fill="#2F81F7"/>
<path d="M4.5 2H7.5V3H4.5V2ZM3.5 3H4.5V4H3.5V3ZM7.5 3H8.5V4H7.5V3ZM9.5 2H10.5V3H9.5V2ZM10.5 1H11.5V2H10.5V1ZM0 5H1.5V6H0V5ZM10.5 5H12V6H10.5V5ZM1.5 2H2.5V3H1.5V2ZM0.5 1H1.5V2H0.5V1ZM3.5 7H4.5V8H3.5V7ZM7.5 7H8.5V8H7.5V7ZM2.5 4H3.5V7H2.5V4ZM8.5 4H9.5V7H8.5V4ZM4.5 8H7.5V9H4.5V8ZM4.5 10H7.5V11H4.5V10ZM4.5 9H5.5V10H4.5V9ZM6.5 9H7.5V10H6.5V9ZM5.5 0H6.5V1.5H5.5V0Z" fill="white"/>
</svg>
