<svg width="38" height="12" viewBox="0 0 38 12" fill="none" xmlns="http://www.w3.org/2000/svg">
<path d="M15 6.992H17V5.008H15V6.992ZM15 5V4H18V8H15V7H14V5H15ZM22 5H23V7H22V8H19V3H20V4H22V5ZM20 6.992H22V5.008H20V6.992ZM27 6.992V5.008H25V6.992H27ZM25 7H24V5H25V4H27V5H28V7H27V8H25V7ZM32 7V4H33V8H30V7H32ZM30 4V7H29V4H30ZM36 3V4H37V5H36V7H35V5H34V4H35V3H36ZM37 8H36V7H37V8Z" fill="#2F81F7"/>
<path d="M2 1H10V2H2V1ZM2 8H9V9H2V8ZM3 5H6V6H3V5ZM3 3H9V4H3V3ZM1 2H2V8H1V2ZM10 2H11V11H10V2ZM9 9H10V10H9V9Z" fill="white"/>
</svg>
