<svg width="49" height="12" viewBox="0 0 49 12" fill="none" xmlns="http://www.w3.org/2000/svg">
<path d="M17 4V5H16V4H17ZM15 6V8H14V4H15V5H16V6H15ZM21 6.992V5.008H19V6.992H21ZM19 7H18V5H19V4H21V5H22V7H21V8H19V7ZM24 6.992H26V5.008H24V6.992ZM24 5V4H27V8H24V7H23V5H24ZM29 6.992H31V5.008H29V6.992ZM29 5V4H31V3H32V8H29V7H28V5H29ZM33 4H37V5H36V8H35V5H34V8H33V4ZM37 8V5H38V8H37ZM40 6.992H42V5.008H40V6.992ZM40 5V4H43V8H40V7H39V5H40ZM47 5H48V7H47V8H45V10H44V4H47V5ZM45 6.992H47V5.008H45V6.992Z" fill="#2F81F7"/>
<path d="M3 1H4V2H3V1ZM3 10H9V11H3V10ZM9 9H10V10H9V9ZM2 9H3V10H2V9ZM2 2H3V3H2V2ZM10 7H11V9H10V7ZM1 3H2V9H1V3ZM4 8H8V9H4V8ZM3 4H4V8H3V4ZM8 7H9V8H8V7ZM5 1H6V7H5V1Z" fill="white"/>
<path d="M5 1H8V2H5V1ZM5 4H8V5H5V4ZM8 2H11V3H8V2ZM8 5H11V6H8V5ZM10 3H11V5H10V3Z" fill="white"/>
</svg>
