<svg width="43" height="12" viewBox="0 0 43 12" fill="none" xmlns="http://www.w3.org/2000/svg">
<path d="M17 5H15V4H17V5ZM15 5V7H14V5H15ZM17 8H15V7H17V8ZM21 4V5H20V4H21ZM19 6V8H18V4H19V5H20V6H19ZM24 5.992V5.008H23V5.992H24ZM23 8V7H22V5H23V4H25V5H26V6H24V7H25V8H23ZM28 6.992H30V5.008H28V6.992ZM28 5V4H30V3H31V8H28V7H27V5H28ZM33 3V4H32V3H33ZM33 5V8H32V5H33ZM36 3V4H37V5H36V7H35V5H34V4H35V3H36ZM37 8H36V7H37V8ZM39 4H42V5H40V6H38V5H39V4ZM38 7H40V6H42V7H41V8H38V7Z" fill="#2F81F7"/>
<path d="M8 9.5H9V10.5H2V9.5H7V8.5H8V9.5ZM3 7.5H7V8.5H2V9.5H1V7.5H2V2.5H3V7.5ZM10 2.5H11V5.5H10V9.5H9V2.5H3V1.5H10V2.5Z" fill="white"/>
</svg>
