<svg width="46" height="12" viewBox="0 0 46 12" fill="none" xmlns="http://www.w3.org/2000/svg">
<path d="M15 4V6H14V4H15ZM18 6V4H19V6H18ZM17 4V6H16V4H17ZM15 8V6H16V8H15ZM17 8V6H18V8H17ZM21 6.992H23V5.008H21V6.992ZM21 5V4H24V8H21V7H20V5H21ZM28 4V5H27V4H28ZM26 6V8H25V4H26V5H27V6H26ZM32 8V5H33V8H32ZM30 5V8H29V4H32V5H30ZM35 3V4H34V3H35ZM35 5V8H34V5H35ZM39 8V5H40V8H39ZM37 5V8H36V4H39V5H37ZM42 6.992H44V5.008H42V6.992ZM42 9H44V8H42V7H41V5H42V4H45V9H44V10H42V9Z" fill="#F6AA1C"/>
<path d="M1 5H2V6H1V5ZM1 7H2V6H1V7ZM11 5H10V6H11V5ZM11 7H10V6H11V7ZM2 4H3V5H2V4ZM2 8H3V7H2V8ZM10 4H9V5H10V4ZM10 8H9V7H10V8ZM3 3H4V4H3V3ZM3 9H4V8H3V9ZM9 3H8V4H9V3ZM9 9H8V8H9V9ZM4 2H5V3H4V2ZM4 10H5V9H4V10ZM8 2H7V3H8V2ZM8 10H7V9H8V10ZM5 1H6V2H5V1ZM5 11H6V10H5V11ZM7 1H6V2H7V1ZM7 11H6V10H7V11ZM5.5 8.5H6.5V7.5H5.5V8.5ZM5.5 6.5H6.5V3.5H5.5V6.5Z" fill="#F6AA1C"/>
</svg>
