<svg width="59" height="7" viewBox="0 0 59 7" fill="none" xmlns="http://www.w3.org/2000/svg">
<path d="M3 2H1V1H3V2ZM1 2V4H0V2H1ZM3 5H1V4H3V5ZM7 1V2H6V1H7ZM5 3V5H4V1H5V2H6V3H5ZM9 1V4H8V1H9ZM11 5H9V4H11V1H12V6H11V5ZM9 6H11V7H9V6ZM14 1H17V2H15V3H13V2H14V1ZM13 4H15V3H17V4H16V5H13V4ZM20 0V1H21V2H20V4H19V2H18V1H19V0H20ZM21 5H20V4H21V5ZM23 3.992H25V2.008H23V3.992ZM23 2V1H26V5H23V4H22V2H23ZM28 0V5H27V0H28ZM35 2.992V2.008H34V2.992H35ZM34 5V4H33V2H34V1H36V2H37V3H35V4H36V5H34ZM41 5V2H42V5H41ZM39 2V5H38V1H41V2H39ZM44 3.992H46V2.008H44V3.992ZM44 6H46V5H44V4H43V2H44V1H47V6H46V7H44V6ZM49 0V1H48V0H49ZM49 2V5H48V2H49ZM53 5V2H54V5H53ZM51 2V5H50V1H53V2H51ZM57 2.992V2.008H56V2.992H57ZM56 5V4H55V2H56V1H58V2H59V3H57V4H58V5H56Z" fill="#2F81F7"/>
</svg>
