<svg width="42" height="12" viewBox="0 0 42 12" fill="none" xmlns="http://www.w3.org/2000/svg">
<path d="M15 3V8H14V3H15ZM17 3V4H16V3H17ZM17 5V8H16V5H17ZM21 5H19V4H21V5ZM19 5V7H18V5H19ZM21 8H19V7H21V8ZM24 5.992V5.008H23V5.992H24ZM23 8V7H22V5H23V4H25V5H26V6H24V7H25V8H23ZM30 8V5H31V8H30ZM28 5V8H27V4H30V5H28ZM33 4H36V5H34V6H32V5H33V4ZM32 7H34V6H36V7H35V8H32V7ZM39 5.992V5.008H38V5.992H39ZM38 8V7H37V5H38V4H40V5H41V6H39V7H40V8H38Z" fill="#2F81F7"/>
<path d="M2 1H10V2H2V1ZM2 10H10V11H2V10ZM1 2H2V10H1V2ZM10 2H11V10H10V2ZM3 3.5H9V4.5H3V3.5ZM3 5.5H6V6.5H3V5.5ZM3 7.5H8V8.5H3V7.5Z" fill="white"/>
</svg>
