<svg width="46" height="12" viewBox="0 0 46 12" fill="none" xmlns="http://www.w3.org/2000/svg">
<path d="M16 5.992V5.008H15V5.992H16ZM15 8V7H14V5H15V4H17V5H18V6H16V7H17V8H15ZM19 4H20V5H19V4ZM22 4V5H21V4H22ZM21 5V7H20V5H21ZM20 7V8H19V7H20ZM22 8H21V7H22V8ZM24 6.992H26V5.008H24V6.992ZM24 5V4H27V8H24V7H23V5H24ZM28 4H32V5H31V8H30V5H29V8H28V4ZM32 8V5H33V8H32ZM37 5H38V7H37V8H35V10H34V4H37V5ZM35 6.992H37V5.008H35V6.992ZM40 3V8H39V3H40ZM43 5.992V5.008H42V5.992H43ZM42 8V7H41V5H42V4H44V5H45V6H43V7H44V8H42Z" fill="#2F81F7"/>
<path d="M2 6.5H6V9.5H7V10.5H6V11.5H5V7.5H1V5.5H2V6.5ZM8 9.5H7V8.5H8V9.5ZM9 8.5H8V7.5H9V8.5ZM10 7.5H9V6.5H10V7.5ZM7 4.5H11V6.5H10V5.5H6V2.5H5V1.5H6V0.5H7V4.5ZM3 5.5H2V4.5H3V5.5ZM4 4.5H3V3.5H4V4.5ZM5 3.5H4V2.5H5V3.5Z" fill="white"/>
</svg>
