<svg width="33" height="12" viewBox="0 0 33 12" fill="none" xmlns="http://www.w3.org/2000/svg">
<path d="M17 8V5H18V8H17ZM15 5V8H14V4H17V5H15ZM22 6.992V5.008H20V6.992H22ZM20 7H19V5H20V4H22V5H23V7H22V8H20V7ZM26 3V4H27V5H26V7H25V5H24V4H25V3H26ZM27 8H26V7H27V8ZM30 5.992V5.008H29V5.992H30ZM29 8V7H28V5H29V4H31V5H32V6H30V7H31V8H29Z" fill="#2F81F7"/>
<path d="M1 5H2V6H1V5ZM1 7H2V6H1V7ZM11 5H10V6H11V5ZM11 7H10V6H11V7ZM2 4H3V5H2V4ZM2 8H3V7H2V8ZM10 4H9V5H10V4ZM10 8H9V7H10V8ZM3 3H4V4H3V3ZM3 9H4V8H3V9ZM9 3H8V4H9V3ZM9 9H8V8H9V9ZM4 2H5V3H4V2ZM4 10H5V9H4V10ZM8 2H7V3H8V2ZM8 10H7V9H8V10ZM5 1H6V2H5V1ZM5 11H6V10H5V11ZM7 1H6V2H7V1ZM7 11H6V10H7V11ZM5.5 8.5H6.5V7.5H5.5V8.5ZM5.5 6.5H6.5V3.5H5.5V6.5Z" fill="#2F81F7"/>
</svg>
