<svg width="80" height="12" viewBox="0 0 80 12" fill="none" xmlns="http://www.w3.org/2000/svg">
<path d="M15 6.992H17V5.008H15V6.992ZM15 9H17V8H15V7H14V5H15V4H18V9H17V10H15V9ZM21 5.992V5.008H20V5.992H21ZM20 8V7H19V5H20V4H22V5H23V6H21V7H22V8H20ZM26 3V4H27V5H26V7H25V5H24V4H25V3H26ZM27 8H26V7H27V8ZM30 3V4H31V5H30V7H29V5H28V4H29V3H30ZM31 8H30V7H31V8ZM33 3V4H32V3H33ZM33 5V8H32V5H33ZM37 8V5H38V8H37ZM35 5V8H34V4H37V5H35ZM40 6.992H42V5.008H40V6.992ZM40 9H42V8H40V7H39V5H40V4H43V9H42V10H40V9ZM49 4H52V5H50V6H48V5H49V4ZM48 7H50V6H52V7H51V8H48V7ZM55 3V4H56V5H55V7H54V5H53V4H54V3H55ZM56 8H55V7H56V8ZM58 6.992H60V5.008H58V6.992ZM58 5V4H61V8H58V7H57V5H58ZM65 4V5H64V4H65ZM63 6V8H62V4H63V5H64V6H63ZM68 3V4H69V5H68V7H67V5H66V4H67V3H68ZM69 8H68V7H69V8ZM72 5.992V5.008H71V5.992H72ZM71 8V7H70V5H71V4H73V5H74V6H72V7H73V8H71ZM76 6.992H78V5.008H76V6.992ZM76 5V4H78V3H79V8H76V7H75V5H76Z" fill="#2F81F7"/>
<path d="M1 5.5H2V8.5H1V5.5ZM2 8.5H3V9.5H2V8.5ZM3 7.5H5V8.5H3V7.5ZM3 3.5H5V4.5H3V3.5ZM5 7.5H6V10.5H5V7.5ZM5 1.5H6V4.5H5V1.5ZM6 9.5H7V10.5H6V9.5ZM7 8.5H8V9.5H7V8.5ZM8 7.5H9V8.5H8V7.5ZM9 6.5H10V7.5H9V6.5ZM10 5.5H11V6.5H10V5.5ZM9 4.5H10V5.5H9V4.5ZM8 3.5H9V4.5H8V3.5ZM7 2.5H8V3.5H7V2.5ZM6 1.5H7V2.5H6V1.5ZM2 4.5H3V5.5H2V4.5Z" fill="white"/>
</svg>
