<svg width="198" height="15" viewBox="0 0 198 15" fill="none" xmlns="http://www.w3.org/2000/svg">
<path d="M1 1V0H3V1H4V5H3V4H1V5H0V1H1ZM3 3V1.008H1V3H3ZM10 1H13V2H11V3H9V2H10V1ZM9 4H11V3H13V4H12V5H9V4ZM15 0V1H14V0H15ZM15 2V5H14V2H15ZM16 1H20V2H19V5H18V2H17V5H16V1ZM20 5V2H21V5H20ZM25 2H26V4H25V5H23V7H22V1H25V2ZM23 3.992H25V2.008H23V3.992ZM28 0V5H27V0H28ZM31 2.992V2.008H30V2.992H31ZM30 5V4H29V2H30V1H32V2H33V3H31V4H32V5H30ZM35 5V4H36V5H35ZM34 6V5H35V6H34ZM44 0V1H43V0H44ZM42 1H43V2H44V3H43V5H42V3H41V2H42V1ZM46 3.992H48V2.008H46V3.992ZM46 2V1H49V5H46V4H45V2H46ZM51 1H54V2H52V3H50V2H51V1ZM50 4H52V3H54V4H53V5H50V4ZM57 0V1H58V2H57V4H56V2H55V1H56V0H57ZM58 5H57V4H58V5ZM64 3.992H66V2.008H64V3.992ZM64 6H66V5H64V4H63V2H64V1H67V6H66V7H64V6ZM69 3.992H71V2.008H69V3.992ZM69 2V1H72V5H69V4H68V2H69ZM73 1H77V2H76V5H75V2H74V5H73V1ZM77 5V2H78V5H77ZM81 2.992V2.008H80V2.992H81ZM80 5V4H79V2H80V1H82V2H83V3H81V4H82V5H80ZM90 2.992V2.008H89V2.992H90ZM89 5V4H88V2H89V1H91V2H92V3H90V4H91V5H89ZM96 5V2H97V5H96ZM94 2V5H93V1H96V2H94ZM99 3.992H101V2.008H99V3.992ZM99 6H101V5H99V4H98V2H99V1H102V6H101V7H99V6ZM104 0V1H103V0H104ZM104 2V5H103V2H104ZM108 5V2H109V5H108ZM106 2V5H105V1H108V2H106ZM112 2.992V2.008H111V2.992H112ZM111 5V4H110V2H111V1H113V2H114V3H112V4H113V5H111ZM121 0V1H122V2H121V4H120V2H119V1H120V0H121ZM122 5H121V4H122V5ZM124 1H126V2H124V5H123V0H124V1ZM126 5V2H127V5H126ZM129 3.992H131V2.008H129V3.992ZM129 2V1H132V5H129V4H128V2H129ZM135 0V1H136V2H135V4H134V2H133V1H134V0H135ZM136 5H135V4H136V5ZM142 1H145V2H143V3H141V2H142V1ZM141 4H143V3H145V4H144V5H141V4ZM149 2H147V1H149V2ZM147 2V4H146V2H147ZM149 5H147V4H149V5ZM153 1V2H152V1H153ZM151 3V5H150V1H151V2H152V3H151ZM155 0V1H154V0H155ZM155 2V5H154V2H155ZM159 2H160V4H159V5H157V7H156V1H159V2ZM157 3.992H159V2.008H157V3.992ZM163 0V1H164V2H163V4H162V2H161V1H162V0H163ZM164 5H163V4H164V5ZM166 1H169V2H167V3H165V2H166V1ZM165 4H167V3H169V4H168V5H165V4ZM175 0V1H174V0H175ZM175 2V5H174V2H175ZM179 5V2H180V5H179ZM177 2V5H176V1H179V2H177ZM188 5H185V0H186V4H188V5ZM192 4V1H193V5H190V4H192ZM190 1V4H189V1H190ZM195 3.992H197V2.008H195V3.992ZM195 2V1H198V5H195V4H194V2H195ZM6 11.992H8V10.008H6V11.992ZM6 10V9H9V13H6V12H5V10H6ZM13 13V10H14V13H13ZM11 10V13H10V9H13V10H11ZM16 11.992H18V10.008H16V11.992ZM16 10V9H18V8H19V13H16V12H15V10H16ZM27 13V10H28V13H27ZM25 10V13H24V9H27V10H25ZM31 10.992V10.008H30V10.992H31ZM30 13V12H29V10H30V9H32V10H33V11H31V12H32V13H30ZM37 11V9H38V11H37ZM35 11V12H34V9H35V11ZM36 12V11H37V12H36ZM35 13V12H36V13H35ZM41 10.992V10.008H40V10.992H41ZM40 13V12H39V10H40V9H42V10H43V11H41V12H42V13H40ZM47 9V10H46V9H47ZM45 11V13H44V9H45V10H46V11H45ZM54 8V9H55V10H54V12H53V10H52V9H53V8H54ZM55 13H54V12H55V13ZM57 11.992H59V10.008H57V11.992ZM57 10V9H60V13H57V12H56V10H57ZM64 10V12H62V13H61V8H62V11H63V10H64ZM65 9V10H64V9H65ZM65 13H64V12H65V13ZM68 10.992V10.008H67V10.992H68ZM67 13V12H66V10H67V9H69V10H70V11H68V12H69V13H67ZM72 9H75V10H73V11H71V10H72V9ZM71 12H73V11H75V12H74V13H71V12ZM83 10H81V9H83V10ZM81 10V12H80V10H81ZM83 13H81V12H83V13ZM87 11.992V10.008H85V11.992H87ZM85 12H84V10H85V9H87V10H88V12H87V13H85V12ZM92 13V10H93V13H92ZM90 10V13H89V9H92V10H90ZM96 8V9H97V10H96V12H95V10H94V9H95V8H96ZM97 13H96V12H97V13ZM101 9V10H100V9H101ZM99 11V13H98V9H99V10H100V11H99ZM105 11.992V10.008H103V11.992H105ZM103 12H102V10H103V9H105V10H106V12H105V13H103V12ZM108 8V13H107V8H108ZM116 11.992V10.008H114V11.992H116ZM114 12H113V10H114V9H116V10H117V12H116V13H114V12ZM121 12V9H122V13H119V12H121ZM119 9V12H118V9H119ZM125 8V9H126V10H125V12H124V10H123V9H124V8H125ZM126 13H125V12H126V13ZM134 11.992V10.008H132V11.992H134ZM132 12H131V10H132V9H134V10H135V12H134V13H132V12ZM139 8V9H138V8H139ZM137 9H138V10H139V11H138V13H137V11H136V10H137V9ZM145 9V12H144V9H145ZM147 13H145V12H147V9H148V14H147V13ZM145 14H147V15H145V14ZM152 11.992V10.008H150V11.992H152ZM150 12H149V10H150V9H152V10H153V12H152V13H150V12ZM157 12V9H158V13H155V12H157ZM155 9V12H154V9H155ZM162 9V10H161V9H162ZM160 11V13H159V9H160V10H161V11H160ZM168 9H170V10H168V13H167V8H168V9ZM170 13V10H171V13H170ZM173 11.992H175V10.008H173V11.992ZM173 10V9H176V13H173V12H172V10H173ZM180 13V10H181V13H180ZM178 10V13H177V9H180V10H178ZM183 11.992H185V10.008H183V11.992ZM183 10V9H185V8H186V13H183V12H182V10H183ZM188 9H191V10H189V11H187V10H188V9ZM187 12H189V11H191V12H190V13H187V12ZM192 13V12H193V13H192Z" fill="white"/>
</svg>
